<mxfile host="app.diagrams.net" agent="Mozilla/5.0 (Macintosh; Intel Mac OS X 10_15_7) AppleWebKit/537.36 (KHTML, like Gecko) Chrome/140.0.0.0 Safari/537.36" version="28.2.0">
  <diagram name="Database Schema" id="db-schema">
    <mxGraphModel dx="1426" dy="824" grid="1" gridSize="10" guides="1" tooltips="1" connect="1" arrows="1" fold="1" page="1" pageScale="1" pageWidth="1400" pageHeight="1600" math="0" shadow="0">
      <root>
        <mxCell id="0" />
        <mxCell id="1" parent="0" />
        <mxCell id="2" value="Mongolia Booking Platform - Database Schema (PostgreSQL)" style="text;html=1;strokeColor=none;fillColor=none;align=center;verticalAlign=middle;whiteSpace=wrap;rounded=0;fontSize=18;fontStyle=1;" parent="1" vertex="1">
          <mxGeometry x="420" y="20" width="560" height="30" as="geometry" />
        </mxCell>
        <mxCell id="3" value="users" style="swimlane;fontStyle=1;align=center;verticalAlign=top;childLayout=stackLayout;horizontal=1;startSize=26;horizontalStack=0;resizeParent=1;resizeParentMax=0;resizeLast=0;collapsible=1;marginBottom=0;fillColor=#dae8fc;strokeColor=#6c8ebf;" parent="1" vertex="1">
          <mxGeometry x="20" y="110" width="240" height="240" as="geometry" />
        </mxCell>
        <mxCell id="4" value="🔑 id (UUID, PK)&#xa;📧 email (VARCHAR, UNIQUE)&#xa;📱 phone (VARCHAR, UNIQUE)&#xa;🔐 password_hash (VARCHAR)&#xa;👤 first_name (VARCHAR)&#xa;👤 last_name (VARCHAR)&#xa;🌍 preferred_language (VARCHAR)&#xa;📍 default_location (VARCHAR)&#xa;📊 user_type (ENUM)&#xa;✅ email_verified (BOOLEAN)&#xa;✅ phone_verified (BOOLEAN)&#xa;🔒 is_active (BOOLEAN)&#xa;📅 created_at (TIMESTAMP)&#xa;📅 updated_at (TIMESTAMP)&#xa;📅 last_login (TIMESTAMP)" style="text;strokeColor=none;fillColor=none;align=left;verticalAlign=top;spacingLeft=4;spacingRight=4;overflow=hidden;rotatable=0;points=[[0,0.5],[1,0.5]];portConstraint=eastwest;fontSize=10;" parent="3" vertex="1">
          <mxGeometry y="26" width="240" height="214" as="geometry" />
        </mxCell>
        <mxCell id="5" value="businesses" style="swimlane;fontStyle=1;align=center;verticalAlign=top;childLayout=stackLayout;horizontal=1;startSize=26;horizontalStack=0;resizeParent=1;resizeParentMax=0;resizeLast=0;collapsible=1;marginBottom=0;fillColor=#d5e8d4;strokeColor=#82b366;" parent="1" vertex="1">
          <mxGeometry x="360" y="80" width="280" height="320" as="geometry" />
        </mxCell>
        <mxCell id="6" value="🔑 id (UUID, PK)&#xa;🔗 owner_id (UUID, FK → users.id)&#xa;🏢 business_name (VARCHAR)&#xa;🏷️ business_type (ENUM)&#xa;📧 contact_email (VARCHAR)&#xa;📱 contact_phone (VARCHAR)&#xa;🏠 address (TEXT)&#xa;📍 latitude (DECIMAL)&#xa;📍 longitude (DECIMAL)&#xa;🖼️ logo_url (VARCHAR)&#xa;📝 description (TEXT)&#xa;⭐ average_rating (DECIMAL)&#xa;🔢 total_reviews (INTEGER)&#xa;🕐 operating_hours (JSONB)&#xa;💰 commission_rate (DECIMAL)&#xa;💳 payment_methods (JSONB)&#xa;✅ is_verified (BOOLEAN)&#xa;🔒 is_active (BOOLEAN)&#xa;📅 created_at (TIMESTAMP)&#xa;📅 updated_at (TIMESTAMP)" style="text;strokeColor=none;fillColor=none;align=left;verticalAlign=top;spacingLeft=4;spacingRight=4;overflow=hidden;rotatable=0;points=[[0,0.5],[1,0.5]];portConstraint=eastwest;fontSize=10;" parent="5" vertex="1">
          <mxGeometry y="26" width="280" height="294" as="geometry" />
        </mxCell>
        <mxCell id="7" value="services" style="swimlane;fontStyle=1;align=center;verticalAlign=top;childLayout=stackLayout;horizontal=1;startSize=26;horizontalStack=0;resizeParent=1;resizeParentMax=0;resizeLast=0;collapsible=1;marginBottom=0;fillColor=#d5e8d4;strokeColor=#82b366;" parent="1" vertex="1">
          <mxGeometry x="690" y="200" width="240" height="200" as="geometry" />
        </mxCell>
        <mxCell id="8" value="🔑 id (UUID, PK)&#xa;🔗 business_id (UUID, FK → businesses.id)&#xa;🏷️ service_name (VARCHAR)&#xa;📝 description (TEXT)&#xa;⏱️ duration_minutes (INTEGER)&#xa;💰 base_price (DECIMAL)&#xa;💰 currency (VARCHAR)&#xa;👥 capacity (INTEGER)&#xa;🎯 category (VARCHAR)&#xa;🖼️ image_url (VARCHAR)&#xa;🔒 is_active (BOOLEAN)&#xa;📅 created_at (TIMESTAMP)&#xa;📅 updated_at (TIMESTAMP)" style="text;strokeColor=none;fillColor=none;align=left;verticalAlign=top;spacingLeft=4;spacingRight=4;overflow=hidden;rotatable=0;points=[[0,0.5],[1,0.5]];portConstraint=eastwest;fontSize=10;" parent="7" vertex="1">
          <mxGeometry y="26" width="240" height="174" as="geometry" />
        </mxCell>
        <mxCell id="9" value="availability" style="swimlane;fontStyle=1;align=center;verticalAlign=top;childLayout=stackLayout;horizontal=1;startSize=26;horizontalStack=0;resizeParent=1;resizeParentMax=0;resizeLast=0;collapsible=1;marginBottom=0;fillColor=#fff2cc;strokeColor=#d6b656;" parent="1" vertex="1">
          <mxGeometry x="960" y="100" width="240" height="200" as="geometry" />
        </mxCell>
        <mxCell id="10" value="🔑 id (UUID, PK)&#xa;🔗 business_id (UUID, FK → businesses.id)&#xa;🔗 service_id (UUID, FK → services.id)&#xa;📅 date (DATE)&#xa;🕐 start_time (TIME)&#xa;🕐 end_time (TIME)&#xa;👥 available_slots (INTEGER)&#xa;👥 booked_slots (INTEGER)&#xa;💰 price_override (DECIMAL)&#xa;🚫 is_blocked (BOOLEAN)&#xa;📝 block_reason (VARCHAR)&#xa;📅 created_at (TIMESTAMP)&#xa;📅 updated_at (TIMESTAMP)" style="text;strokeColor=none;fillColor=none;align=left;verticalAlign=top;spacingLeft=4;spacingRight=4;overflow=hidden;rotatable=0;points=[[0,0.5],[1,0.5]];portConstraint=eastwest;fontSize=10;" parent="9" vertex="1">
          <mxGeometry y="26" width="240" height="174" as="geometry" />
        </mxCell>
        <mxCell id="11" value="bookings" style="swimlane;fontStyle=1;align=center;verticalAlign=top;childLayout=stackLayout;horizontal=1;startSize=26;horizontalStack=0;resizeParent=1;resizeParentMax=0;resizeLast=0;collapsible=1;marginBottom=0;fillColor=#e1d5e7;strokeColor=#9673a6;" parent="1" vertex="1">
          <mxGeometry x="80" y="480" width="280" height="320" as="geometry" />
        </mxCell>
        <mxCell id="12" value="🔑 id (UUID, PK)&#xa;📝 booking_number (VARCHAR, UNIQUE)&#xa;🔗 customer_id (UUID, FK → users.id)&#xa;🔗 business_id (UUID, FK → businesses.id)&#xa;🔗 service_id (UUID, FK → services.id)&#xa;📅 booking_date (DATE)&#xa;🕐 booking_time (TIME)&#xa;⏱️ duration_minutes (INTEGER)&#xa;👥 party_size (INTEGER)&#xa;💰 total_amount (DECIMAL)&#xa;💰 currency (VARCHAR)&#xa;📊 status (ENUM)&#xa;📱 customer_phone (VARCHAR)&#xa;📧 customer_email (VARCHAR)&#xa;📝 customer_name (VARCHAR)&#xa;📝 special_requests (TEXT)&#xa;🔗 payment_id (UUID, FK)&#xa;📅 created_at (TIMESTAMP)&#xa;📅 updated_at (TIMESTAMP)&#xa;📅 cancelled_at (TIMESTAMP)" style="text;strokeColor=none;fillColor=none;align=left;verticalAlign=top;spacingLeft=4;spacingRight=4;overflow=hidden;rotatable=0;points=[[0,0.5],[1,0.5]];portConstraint=eastwest;fontSize=10;" parent="11" vertex="1">
          <mxGeometry y="26" width="280" height="294" as="geometry" />
        </mxCell>
        <mxCell id="13" value="payments" style="swimlane;fontStyle=1;align=center;verticalAlign=top;childLayout=stackLayout;horizontal=1;startSize=26;horizontalStack=0;resizeParent=1;resizeParentMax=0;resizeLast=0;collapsible=1;marginBottom=0;fillColor=#ffe6cc;strokeColor=#d79b00;" parent="1" vertex="1">
          <mxGeometry x="420" y="470" width="280" height="280" as="geometry" />
        </mxCell>
        <mxCell id="14" value="🔑 id (UUID, PK)&#xa;🔗 booking_id (UUID, FK → bookings.id)&#xa;🔗 customer_id (UUID, FK → users.id)&#xa;🔗 business_id (UUID, FK → businesses.id)&#xa;💰 amount (DECIMAL)&#xa;💰 currency (VARCHAR)&#xa;💰 commission_amount (DECIMAL)&#xa;💳 payment_method (VARCHAR)&#xa;🏦 payment_provider (VARCHAR)&#xa;🆔 external_transaction_id (VARCHAR)&#xa;📊 status (ENUM)&#xa;💳 payment_details (JSONB)&#xa;📝 failure_reason (VARCHAR)&#xa;📅 paid_at (TIMESTAMP)&#xa;📅 refunded_at (TIMESTAMP)&#xa;📅 created_at (TIMESTAMP)&#xa;📅 updated_at (TIMESTAMP)" style="text;strokeColor=none;fillColor=none;align=left;verticalAlign=top;spacingLeft=4;spacingRight=4;overflow=hidden;rotatable=0;points=[[0,0.5],[1,0.5]];portConstraint=eastwest;fontSize=10;" parent="13" vertex="1">
          <mxGeometry y="26" width="280" height="254" as="geometry" />
        </mxCell>
        <mxCell id="15" value="reviews" style="swimlane;fontStyle=1;align=center;verticalAlign=top;childLayout=stackLayout;horizontal=1;startSize=26;horizontalStack=0;resizeParent=1;resizeParentMax=0;resizeLast=0;collapsible=1;marginBottom=0;fillColor=#f8cecc;strokeColor=#b85450;" parent="1" vertex="1">
          <mxGeometry x="740" y="640" width="240" height="180" as="geometry" />
        </mxCell>
        <mxCell id="16" value="🔑 id (UUID, PK)&#xa;🔗 booking_id (UUID, FK → bookings.id)&#xa;🔗 customer_id (UUID, FK → users.id)&#xa;🔗 business_id (UUID, FK → businesses.id)&#xa;⭐ rating (INTEGER, 1-5)&#xa;📝 review_text (TEXT)&#xa;🖼️ photos (JSONB)&#xa;👍 helpful_votes (INTEGER)&#xa;📊 status (ENUM)&#xa;📅 created_at (TIMESTAMP)&#xa;📅 updated_at (TIMESTAMP)" style="text;strokeColor=none;fillColor=none;align=left;verticalAlign=top;spacingLeft=4;spacingRight=4;overflow=hidden;rotatable=0;points=[[0,0.5],[1,0.5]];portConstraint=eastwest;fontSize=10;" parent="15" vertex="1">
          <mxGeometry y="26" width="240" height="154" as="geometry" />
        </mxCell>
        <mxCell id="17" value="loyalty_points" style="swimlane;fontStyle=1;align=center;verticalAlign=top;childLayout=stackLayout;horizontal=1;startSize=26;horizontalStack=0;resizeParent=1;resizeParentMax=0;resizeLast=0;collapsible=1;marginBottom=0;fillColor=#e1d5e7;strokeColor=#9673a6;" parent="1" vertex="1">
          <mxGeometry x="1000" y="480" width="240" height="180" as="geometry" />
        </mxCell>
        <mxCell id="18" value="🔑 id (UUID, PK)&#xa;🔗 customer_id (UUID, FK → users.id)&#xa;🔗 booking_id (UUID, FK → bookings.id)&#xa;🔗 business_id (UUID, FK → businesses.id)&#xa;💎 points_earned (INTEGER)&#xa;💎 points_spent (INTEGER)&#xa;💎 points_balance (INTEGER)&#xa;📝 transaction_type (ENUM)&#xa;📝 description (VARCHAR)&#xa;📅 expires_at (TIMESTAMP)&#xa;📅 created_at (TIMESTAMP)" style="text;strokeColor=none;fillColor=none;align=left;verticalAlign=top;spacingLeft=4;spacingRight=4;overflow=hidden;rotatable=0;points=[[0,0.5],[1,0.5]];portConstraint=eastwest;fontSize=10;" parent="17" vertex="1">
          <mxGeometry y="26" width="240" height="154" as="geometry" />
        </mxCell>
        <mxCell id="19" value="notifications" style="swimlane;fontStyle=1;align=center;verticalAlign=top;childLayout=stackLayout;horizontal=1;startSize=26;horizontalStack=0;resizeParent=1;resizeParentMax=0;resizeLast=0;collapsible=1;marginBottom=0;fillColor=#dae8fc;strokeColor=#6c8ebf;" parent="1" vertex="1">
          <mxGeometry x="80" y="860" width="240" height="200" as="geometry" />
        </mxCell>
        <mxCell id="20" value="🔑 id (UUID, PK)&#xa;🔗 user_id (UUID, FK → users.id)&#xa;🔗 booking_id (UUID, FK → bookings.id)&#xa;📧 type (ENUM)&#xa;🏷️ title (VARCHAR)&#xa;📝 message (TEXT)&#xa;📱 channel (ENUM)&#xa;📊 status (ENUM)&#xa;📅 scheduled_at (TIMESTAMP)&#xa;📅 sent_at (TIMESTAMP)&#xa;📅 read_at (TIMESTAMP)&#xa;🔄 retry_count (INTEGER)&#xa;📅 created_at (TIMESTAMP)" style="text;strokeColor=none;fillColor=none;align=left;verticalAlign=top;spacingLeft=4;spacingRight=4;overflow=hidden;rotatable=0;points=[[0,0.5],[1,0.5]];portConstraint=eastwest;fontSize=10;" parent="19" vertex="1">
          <mxGeometry y="26" width="240" height="174" as="geometry" />
        </mxCell>
        <mxCell id="21" value="business_analytics" style="swimlane;fontStyle=1;align=center;verticalAlign=top;childLayout=stackLayout;horizontal=1;startSize=26;horizontalStack=0;resizeParent=1;resizeParentMax=0;resizeLast=0;collapsible=1;marginBottom=0;fillColor=#fff2cc;strokeColor=#d6b656;" parent="1" vertex="1">
          <mxGeometry x="360" y="890" width="200" height="120" as="geometry" />
        </mxCell>
        <mxCell id="22" value="🔑 id (UUID, PK)&#xa;🔗 business_id (UUID, FK → businesses.id)&#xa;📅 date (DATE)&#xa;📊 metric_type (VARCHAR)&#xa;📈 value (DECIMAL)&#xa;📝 metadata (JSONB)&#xa;📅 created_at (TIMESTAMP)" style="text;strokeColor=none;fillColor=none;align=left;verticalAlign=top;spacingLeft=4;spacingRight=4;overflow=hidden;rotatable=0;points=[[0,0.5],[1,0.5]];portConstraint=eastwest;fontSize=10;" parent="21" vertex="1">
          <mxGeometry y="26" width="200" height="94" as="geometry" />
        </mxCell>
        <mxCell id="23" value="business_hours" style="swimlane;fontStyle=1;align=center;verticalAlign=top;childLayout=stackLayout;horizontal=1;startSize=26;horizontalStack=0;resizeParent=1;resizeParentMax=0;resizeLast=0;collapsible=1;marginBottom=0;fillColor=#d5e8d4;strokeColor=#82b366;" parent="1" vertex="1">
          <mxGeometry x="600" y="890" width="200" height="160" as="geometry" />
        </mxCell>
        <mxCell id="24" value="🔑 id (UUID, PK)&#xa;🔗 business_id (UUID, FK → businesses.id)&#xa;📅 day_of_week (INTEGER, 0-6)&#xa;🕐 open_time (TIME)&#xa;🕐 close_time (TIME)&#xa;🚫 is_closed (BOOLEAN)&#xa;📝 break_start (TIME)&#xa;📝 break_end (TIME)&#xa;📅 effective_from (DATE)&#xa;📅 effective_until (DATE)" style="text;strokeColor=none;fillColor=none;align=left;verticalAlign=top;spacingLeft=4;spacingRight=4;overflow=hidden;rotatable=0;points=[[0,0.5],[1,0.5]];portConstraint=eastwest;fontSize=10;" parent="23" vertex="1">
          <mxGeometry y="26" width="200" height="134" as="geometry" />
        </mxCell>
        <mxCell id="25" value="promotions" style="swimlane;fontStyle=1;align=center;verticalAlign=top;childLayout=stackLayout;horizontal=1;startSize=26;horizontalStack=0;resizeParent=1;resizeParentMax=0;resizeLast=0;collapsible=1;marginBottom=0;fillColor=#e1d5e7;strokeColor=#9673a6;" parent="1" vertex="1">
          <mxGeometry x="840" y="860" width="200" height="240" as="geometry" />
        </mxCell>
        <mxCell id="26" value="🔑 id (UUID, PK)&#xa;🔗 business_id (UUID, FK → businesses.id)&#xa;🏷️ promo_code (VARCHAR, UNIQUE)&#xa;📝 title (VARCHAR)&#xa;📝 description (TEXT)&#xa;💰 discount_type (ENUM)&#xa;💰 discount_value (DECIMAL)&#xa;💰 min_amount (DECIMAL)&#xa;🔢 usage_limit (INTEGER)&#xa;🔢 used_count (INTEGER)&#xa;📅 valid_from (TIMESTAMP)&#xa;📅 valid_until (TIMESTAMP)&#xa;🔒 is_active (BOOLEAN)&#xa;📅 created_at (TIMESTAMP)" style="text;strokeColor=none;fillColor=none;align=left;verticalAlign=top;spacingLeft=4;spacingRight=4;overflow=hidden;rotatable=0;points=[[0,0.5],[1,0.5]];portConstraint=eastwest;fontSize=10;" parent="25" vertex="1">
          <mxGeometry y="26" width="200" height="214" as="geometry" />
        </mxCell>
        <mxCell id="27" value="1:N" style="endArrow=classic;html=1;fontSize=12;fontStyle=1;strokeWidth=2;strokeColor=#82b366;" parent="1" source="3" target="5" edge="1">
          <mxGeometry width="50" height="50" relative="1" as="geometry">
            <mxPoint x="320" y="200" as="sourcePoint" />
            <mxPoint x="360" y="200" as="targetPoint" />
          </mxGeometry>
        </mxCell>
        <mxCell id="28" value="1:N" style="endArrow=classic;html=1;fontSize=12;fontStyle=1;strokeWidth=2;strokeColor=#82b366;" parent="1" source="5" target="7" edge="1">
          <mxGeometry width="50" height="50" relative="1" as="geometry">
            <mxPoint x="640" y="200" as="sourcePoint" />
            <mxPoint x="680" y="200" as="targetPoint" />
          </mxGeometry>
        </mxCell>
        <mxCell id="29" value="1:N" style="endArrow=classic;html=1;fontSize=12;fontStyle=1;strokeWidth=2;strokeColor=#d6b656;" parent="1" source="5" target="9" edge="1">
          <mxGeometry x="0.0188" y="-10" width="50" height="50" relative="1" as="geometry">
            <mxPoint x="640" y="150" as="sourcePoint" />
            <mxPoint x="960" y="150" as="targetPoint" />
            <Array as="points">
              <mxPoint x="750" y="120" />
              <mxPoint x="900" y="120" />
            </Array>
            <mxPoint as="offset" />
          </mxGeometry>
        </mxCell>
        <mxCell id="30" value="1:N" style="endArrow=classic;html=1;fontSize=12;fontStyle=1;strokeWidth=2;strokeColor=#d6b656;" parent="1" source="7" target="9" edge="1">
          <mxGeometry width="50" height="50" relative="1" as="geometry">
            <mxPoint x="920" y="180" as="sourcePoint" />
            <mxPoint x="960" y="180" as="targetPoint" />
          </mxGeometry>
        </mxCell>
        <mxCell id="31" value="1:N" style="endArrow=classic;html=1;fontSize=12;fontStyle=1;strokeWidth=2;strokeColor=#9673a6;" parent="1" source="3" target="11" edge="1">
          <mxGeometry width="50" height="50" relative="1" as="geometry">
            <mxPoint x="200" y="340" as="sourcePoint" />
            <mxPoint x="200" y="480" as="targetPoint" />
            <Array as="points">
              <mxPoint x="200" y="400" />
            </Array>
          </mxGeometry>
        </mxCell>
        <mxCell id="32" value="1:N" style="endArrow=classic;html=1;fontSize=12;fontStyle=1;strokeWidth=2;strokeColor=#9673a6;" parent="1" source="5" target="11" edge="1">
          <mxGeometry width="50" height="50" relative="1" as="geometry">
            <mxPoint x="400" y="400" as="sourcePoint" />
            <mxPoint x="300" y="480" as="targetPoint" />
            <Array as="points">
              <mxPoint x="400" y="440" />
              <mxPoint x="300" y="440" />
            </Array>
          </mxGeometry>
        </mxCell>
        <mxCell id="33" value="1:1" style="endArrow=classic;html=1;fontSize=12;fontStyle=1;strokeWidth=2;strokeColor=#d79b00;" parent="1" source="11" target="13" edge="1">
          <mxGeometry width="50" height="50" relative="1" as="geometry">
            <mxPoint x="360" y="640" as="sourcePoint" />
            <mxPoint x="400" y="620" as="targetPoint" />
          </mxGeometry>
        </mxCell>
        <mxCell id="34" value="1:1" style="endArrow=classic;html=1;fontSize=12;fontStyle=1;strokeWidth=2;strokeColor=#b85450;" parent="1" source="11" target="15" edge="1">
          <mxGeometry width="50" height="50" relative="1" as="geometry">
            <mxPoint x="360" y="700" as="sourcePoint" />
            <mxPoint x="720" y="590" as="targetPoint" />
            <Array as="points">
              <mxPoint x="460" y="800" />
              <mxPoint x="620" y="800" />
              <mxPoint x="670" y="810" />
            </Array>
          </mxGeometry>
        </mxCell>
        <mxCell id="35" value="KEY INDEXES FOR PERFORMANCE" style="text;html=1;strokeColor=none;fillColor=none;align=center;verticalAlign=middle;whiteSpace=wrap;rounded=0;fontSize=14;fontStyle=1;" parent="1" vertex="1">
          <mxGeometry x="80" y="1200" width="300" height="25" as="geometry" />
        </mxCell>
        <mxCell id="36" value="• users: email, phone, user_type, created_at&#xa;• businesses: business_type, is_active, latitude/longitude (GIS)&#xa;• services: business_id, category, is_active&#xa;• availability: business_id, service_id, date, start_time&#xa;• bookings: customer_id, business_id, booking_date, status&#xa;• payments: booking_id, status, created_at&#xa;• reviews: business_id, rating, created_at&#xa;• notifications: user_id, status, scheduled_at&#xa;• loyalty_points: customer_id, business_id, created_at" style="rounded=1;whiteSpace=wrap;html=1;fillColor=#f5f5f5;strokeColor=#666666;align=left;verticalAlign=top;fontSize=11;" parent="1" vertex="1">
          <mxGeometry x="80" y="1240" width="480" height="140" as="geometry" />
        </mxCell>
        <mxCell id="37" value="MULTI-TENANT STRATEGY" style="text;html=1;strokeColor=none;fillColor=none;align=center;verticalAlign=middle;whiteSpace=wrap;rounded=0;fontSize=14;fontStyle=1;" parent="1" vertex="1">
          <mxGeometry x="600" y="1200" width="200" height="25" as="geometry" />
        </mxCell>
        <mxCell id="38" value="• Shared Database, Separate Schemas approach&#xa;• tenant_id (implied) for logical separation&#xa;• Row Level Security (RLS) for data isolation&#xa;• Connection pooling by tenant&#xa;• Automatic tenant detection from subdomain&#xa;• Cross-tenant analytics in separate schema&#xa;• Data export/import utilities per tenant&#xa;• Tenant-specific configuration in JSONB" style="rounded=1;whiteSpace=wrap;html=1;fillColor=#e6f3ff;strokeColor=#4d79a4;align=left;verticalAlign=top;fontSize=11;" parent="1" vertex="1">
          <mxGeometry x="600" y="1240" width="360" height="140" as="geometry" />
        </mxCell>
        <mxCell id="39" value="FUTURE SCHEMA ENHANCEMENTS" style="text;html=1;strokeColor=none;fillColor=none;align=center;verticalAlign=middle;whiteSpace=wrap;rounded=0;fontSize=14;fontStyle=1;fontColor=#CC0000;" parent="1" vertex="1">
          <mxGeometry x="1000" y="1200" width="280" height="25" as="geometry" />
        </mxCell>
        <mxCell id="40" value="• inventory_items (hotel rooms, salon chairs)&#xa;• recurring_bookings (weekly appointments)&#xa;• group_bookings (tourism packages)&#xa;• business_partnerships (cross-promotions)&#xa;• customer_preferences (dietary, accessibility)&#xa;• audit_logs (compliance and debugging)&#xa;• integration_logs (POS/PMS sync)&#xa;• seasonal_pricing (dynamic rates)&#xa;• waiting_lists (overbooking management)&#xa;• marketing_campaigns (targeted promotions)" style="rounded=1;whiteSpace=wrap;html=1;fillColor=#ffe6e6;strokeColor=#cc0000;align=left;verticalAlign=top;fontSize=11;" parent="1" vertex="1">
          <mxGeometry x="1000" y="1240" width="320" height="160" as="geometry" />
        </mxCell>
      </root>
    </mxGraphModel>
  </diagram>
</mxfile>
